<svg xmlns="http://www.w3.org/2000/svg" xmlns:xlink="http://www.w3.org/1999/xlink" viewBox="-1178 0 624 624">
  <defs>
    <style>
      .cls-1 {
        clip-path: url(#clip-Artboard_1);
      }

      .cls-2 {
        opacity: 0.83;
      }

      .cls-3, .cls-4, .cls-5 {
        fill: none;
        fill-rule: evenodd;
      }

      .cls-3, .cls-9 {
        stroke: #c0d848;
      }

      .cls-3, .cls-4, .cls-5, .cls-6, .cls-8, .cls-9 {
        stroke-width: 8px;
      }

      .cls-4, .cls-8 {
        stroke: #373535;
      }

      .cls-5, .cls-6 {
        stroke: #c2d94f;
      }

      .cls-6, .cls-8, .cls-9 {
        fill: #f6f6f6;
      }

      .cls-7 {
        opacity: 0.5;
      }
    </style>
    <clipPath id="clip-Artboard_1">
      <rect x="-1178" width="624" height="624"/>
    </clipPath>
  </defs>
  <g id="Artboard_1" data-name="Artboard – 1" class="cls-1">
    <g id="disparate-data-in-unified-data-out-no-text" class="cls-2" transform="translate(-472.295 585.358) rotate(90)">
      <g id="g5865" transform="translate(-446.357 219.953)">
        <path id="path5822" class="cls-3" d="M1217.324-5361.026H1106.969c-46.975,0-63.355-55.073-125.873-111.215" transform="translate(-793.758 5523.729)"/>
        <path id="path5822-7" class="cls-4" d="M1109.182-5269.3H998.828c-221.3,6.218-193.674-17.156-313.211,172.384" transform="translate(-685.616 5449.456)"/>
        <path id="path5822-9" class="cls-3" d="M1216.8-5260.125H1106.441c-48.042,0-63.51,31.789-126.787,90.265" transform="translate(-793.23 5446.098)"/>
        <path id="path5822-6" class="cls-5" d="M1155.975-5278.475H1045.621l-232.15.432" transform="translate(-732.409 5452.814)"/>
        <path id="path5822-1" class="cls-4" d="M1113.51-5384.93H1003.156c-220.721,0-194.13,24.747-305.713-168.522" transform="translate(-689.945 5553.453)"/>
      </g>
      <g id="g5790" transform="matrix(-0.017, -1, 1, -0.017, -520.766, 473.21)">
        <circle id="path5254-43" class="cls-6" cx="78.455" cy="78.455" r="78.455" transform="translate(0)"/>
        <g id="g5110" class="cls-7" transform="translate(36.882 39.728)">
          <g id="g5068" transform="translate(0 0)">
            <g id="g5070">
              <path id="path5072" d="M1.056,15.463a1.72,1.72,0,0,0-.2-.337c-.036-.052-.074-.108-.115-.173a.3.3,0,0,0-.538.06,4.381,4.381,0,0,0-.185,1.858,3.019,3.019,0,0,0,1.662,2.549,5.382,5.382,0,0,0,2.481.545l.209.006c.383.012.766.022,1.127.053a.208.208,0,0,1,.038.02c.027.436.3.7.825.784.457.075.918.13,1.379.18a6.433,6.433,0,0,1,4.183,2.047,17.084,17.084,0,0,1,2.034,2.882q.2.325.4.649,1.526,2.464,3.063,4.922a3.087,3.087,0,0,0,2.013,1.429c.623.131,1.258.235,1.872.336l.683.113q-.647.909-1.3,1.815c-1.059,1.482-2.119,2.964-3.158,4.459C15,43.307,12.675,46.993,10.619,50.618A73.223,73.223,0,0,0,5.2,62.074a21.662,21.662,0,0,0-1.237,4.984,15.876,15.876,0,0,0,.695,6.495,5.532,5.532,0,0,0,1.6,2.623,5.165,5.165,0,0,0,4.966,1.056,22.439,22.439,0,0,0,4.926-2.116A101.365,101.365,0,0,0,26.813,68.63c.916-.646,1.822-1.334,2.7-2l.134-.1q.3-.212.6-.428.341-.244.688-.5l.07.112a.3.3,0,0,0,.286.139,2.478,2.478,0,0,0,1.094-.455,2.632,2.632,0,0,0-.573.836.3.3,0,0,0,.357.4,1.619,1.619,0,0,0,.433-.185,1.716,1.716,0,0,0-.165.4.3.3,0,0,0,.386.362A1.6,1.6,0,0,0,33.243,67l-.06.083-.143.2a.3.3,0,0,0,.061.418l.1.079a.3.3,0,0,0,.306.038,1.77,1.77,0,0,0,.418-.261,1.654,1.654,0,0,0-.141.4.3.3,0,0,0,.38.35,1.229,1.229,0,0,0,.4-.191,1.891,1.891,0,0,0-.09.413.3.3,0,0,0,.453.289,1.647,1.647,0,0,0,.284-.212.13.13,0,0,0,0,.013l-.045.17a.3.3,0,0,0,.149.347l.1.052a.3.3,0,0,0,.361-.063L35.8,69.1c0,.011,0,.022,0,.033a.3.3,0,0,0,.481.264,1.9,1.9,0,0,0,.516-.615,1.856,1.856,0,0,0-.063.709.3.3,0,0,0,.2.248.3.3,0,0,0,.31-.064,2.755,2.755,0,0,0,.666-1.217c.036-.106.072-.213.112-.318l.008,0,0,.021c-.046.22-.089.431-.122.642s-.053.415-.074.623L37.8,69.7a.3.3,0,0,0,.249.33l.137.023a.3.3,0,0,0,.3-.128,1.944,1.944,0,0,0,.157-.279,1.52,1.52,0,0,0,.045.231l.022.1c.028.141.25.241.4.241h.005a.3.3,0,0,0,.218-.1c0,.02.007.039.011.06a.3.3,0,0,0,.206.227.3.3,0,0,0,.3-.071,1.276,1.276,0,0,0,.134-.152l0,.03c.014.159.292.288.428.27a.3.3,0,0,0,.243-.137.3.3,0,0,0,.242.14l.163.007a.3.3,0,0,0,.283-.169,2.813,2.813,0,0,0,.211-1.287c0-.141,0-.277.009-.409H41.6v.02c0,.235,0,.461,0,.689.018.576.05.912.5,1.118a.3.3,0,0,0,.413-.188l.033.058a.3.3,0,0,0,.527-.019,1.363,1.363,0,0,0,.063-.144c.016.03.032.059.045.089.061.135.32.176.463.137a.3.3,0,0,0,.22-.267V70.1a.3.3,0,0,0,.494-.043,1.041,1.041,0,0,0,.143-.434,1.8,1.8,0,0,0,.182.3.3.3,0,0,0,.3.114l.146-.031a.3.3,0,0,0,.235-.341l-.238-1.526c.041.1.077.213.114.325a2.206,2.206,0,0,0,.7,1.17.3.3,0,0,0,.478-.294,7.276,7.276,0,0,0-.23-.887,1.817,1.817,0,0,0,.717.936.3.3,0,0,0,.446-.165.325.325,0,0,0,.088.037.3.3,0,0,0,.259-.059l.167-.135a.3.3,0,0,0,.1-.329l-.031-.1a1.4,1.4,0,0,0,.279.187.3.3,0,0,0,.437-.272,1.466,1.466,0,0,0-.073-.436,1.429,1.429,0,0,0,.268.175.3.3,0,0,0,.309-.024l.107-.076a.3.3,0,0,0,.075-.414l-.2-.288a1.806,1.806,0,0,0,.491.311.3.3,0,0,0,.313-.051l.1-.086a.3.3,0,0,0,.037-.416l-.161-.2a1.7,1.7,0,0,0,.315.191.3.3,0,0,0,.33-.051l.123-.112a.3.3,0,0,0,.035-.409l-.146-.187a1.279,1.279,0,0,0,.306.12.3.3,0,0,0,.282-.075l.092-.089a.3.3,0,0,0,.021-.41l-.549-.649h0a2.31,2.31,0,0,0,1.129.466.29.29,0,0,0,.279-.151l.069-.121.02.015c.867.672,1.765,1.366,2.669,2.024A100.321,100.321,0,0,0,67.539,75.4a19.8,19.8,0,0,0,4.7,1.909,5.789,5.789,0,0,0,1.287.149A5,5,0,0,0,78.1,74.5a13.7,13.7,0,0,0,1.136-4.9,19.144,19.144,0,0,0-1.5-8.115,63.869,63.869,0,0,0-4.142-8.909c-1.216-2.167-2.666-4.715-4.2-7.189-2.222-3.583-4.8-7.355-7.885-11.532-.114-.154-.224-.31-.339-.473.217-.037.434-.071.651-.106.6-.1,1.23-.2,1.841-.331a2.533,2.533,0,0,0,1.549-.858c.355-.468.768-1.025,1.14-1.6s.732-1.151,1.094-1.73c.313-.5.627-1.005.948-1.5q.309-.482.614-.967c.592-.938,1.2-1.907,1.867-2.808a6.078,6.078,0,0,1,4.248-2.434l.492-.063c.417-.052.85-.106,1.274-.19.233-.046.672-.306.681-.64a.259.259,0,0,1,.022-.126.815.815,0,0,1,.253-.036c.209-.01.418-.016.627-.023.464-.015.945-.031,1.419-.082a3.5,3.5,0,0,0,2.74-1.523,4.048,4.048,0,0,0,.385-3.129.4.4,0,0,0-.144-.232l-.047-.046a.286.286,0,0,0-.26-.093.3.3,0,0,0-.226.158l-.105.2c-.074.135-.141.26-.2.389A4.475,4.475,0,0,1,78.9,18.346c-.818.2-1.639.384-2.461.567-.658.147-1.316.294-1.971.449a5.682,5.682,0,0,0-2.745,1.457l-.471.464c-.61.6-1.241,1.215-1.8,1.879-1.515,1.79-3.134,3.727-4.711,5.766a3.625,3.625,0,0,1-2.83,1.522c-.175.01-.351.013-.527.017a4.548,4.548,0,0,0-2.081.381l-1.55-2.065q-.459-.656-.923-1.309a4.513,4.513,0,0,0-.555-.661l-.339-.452h.516a.3.3,0,0,0,.3-.264l.013-.105a.3.3,0,0,0-.238-.332l-.381-.08c-.273-.058-.546-.115-.821-.167a.414.414,0,0,1-.264-.18h1.549c.153,0,.292-.2.309-.356a.3.3,0,0,0-.22-.323l-.084-.025a1.635,1.635,0,0,0-.255-.063c-.4-.057-.8-.109-1.217-.158a2.222,2.222,0,0,0-.254-.022c-.006-.031-.012-.063-.017-.095.164-.017.329-.029.494-.04a5.258,5.258,0,0,0,1.514-.262.3.3,0,0,0,.194-.306l-.008-.089a.3.3,0,0,0-.3-.274H54.7l-.033-.167,1.8-.423a.3.3,0,0,0,.227-.345l-.031-.176a.3.3,0,0,0-.335-.246l-1.772.23,1.691-.51a.357.357,0,0,0,.191-.417l-.027-.1a.305.305,0,0,0-.345-.221l-1.929.353-.023-.063c.123-.034.245-.065.367-.1a4.777,4.777,0,0,0,1.551-.6.3.3,0,0,0-.108-.545,1.294,1.294,0,0,0-.4-.022,2.276,2.276,0,0,0,.3-.419l.51-.9c.289-.508.579-1.016.862-1.527q.9-1.616,1.787-3.235,1.685-3.055,3.383-6.1A9.42,9.42,0,0,1,64.61,4.842a.879.879,0,0,1,.854-.22,5.775,5.775,0,0,0,2.772.012,27.971,27.971,0,0,0,4.625-1.591A2.761,2.761,0,0,0,74.4,1.5c.1-.234.173-.475.249-.715l.1-.313a.3.3,0,0,0-.137-.357L74.474.039a.3.3,0,0,0-.353.041c-.058.053-.117.1-.176.157a4.243,4.243,0,0,0-.427.413,4.93,4.93,0,0,0-.4.556l-.095.144a.926.926,0,0,1-.717.451c-.671.076-1.341.157-2.012.238-1.182.142-2.363.285-3.547.4a7.6,7.6,0,0,0-2.731.787A5.03,5.03,0,0,0,62.1,5.3c-.559.942-1.1,1.917-1.616,2.858-.257.467-.515.934-.776,1.4l-.169.307a4.464,4.464,0,0,1-1.376,1.756.9.9,0,0,0-.326.5,1.9,1.9,0,0,1-.63.888l-.173.158a6.112,6.112,0,0,0-1.024,1.1c-.68,1.029-1.319,2.107-1.937,3.149l-.239.4c-.035.06-.057.088-.061.1a2.588,2.588,0,0,0-.935-.036c-.083.008-.166.016-.249.022l.415-.47a.3.3,0,0,0,0-.4l-.092-.1a.3.3,0,0,0-.4-.036l-.606.46.516-.64a.3.3,0,0,0-.032-.412l-.1-.1a.3.3,0,0,0-.4,0l-.347.3.2-.33a.3.3,0,0,0-.081-.4l-.117-.084a.3.3,0,0,0-.4.045l-.146.165a.3.3,0,0,0-.014-.255,1.845,1.845,0,0,0,.7-1.221,1.782,1.782,0,0,0-.334-1.309c.251-.038.495-.078.734-.135a2.349,2.349,0,0,0,1.851-2.77,3.8,3.8,0,0,0-1.707-2.515A7.037,7.037,0,0,0,47.08,6.456c-.029,0-.055.007-.051.036A.291.291,0,0,1,47,6.412a1.817,1.817,0,0,0-2.319-1.319,3.114,3.114,0,0,0-.765.378l-.055.034-.076.007a2.935,2.935,0,0,0-4.469.045,2.87,2.87,0,0,0-1.5-.573c-.8,0-1.291.686-1.691,1.471l-.106-.008A6.5,6.5,0,0,0,30,8.588a3.061,3.061,0,0,0-.756,2.619,2.282,2.282,0,0,0,1.866,1.779,5.275,5.275,0,0,0,.712.131,2.269,2.269,0,0,0-.294.574,1.756,1.756,0,0,0,.642,1.941.3.3,0,0,0-.02.259L32,15.728a.3.3,0,0,0-.406-.042l-.108.081a.3.3,0,0,0-.078.4l.2.342-.351-.3a.3.3,0,0,0-.412.017l-.1.107a.352.352,0,0,0,.013.441l.482.584-.612-.462a.3.3,0,0,0-.409.043l-.084.1a.3.3,0,0,0,0,.4l.389.439c-.178-.013-.363-.025-.563-.035a.919.919,0,0,0-.34.067.24.24,0,0,1-.334-.129l-.16-.3c-.226-.427-.46-.867-.715-1.291a11.493,11.493,0,0,0-2.647-3.332.847.847,0,0,1-.159-.144,4.462,4.462,0,0,0-1.188-1.615l-.152-.152a.963.963,0,0,1-.143-.2l-.311-.542c-.292-.508-.584-1.015-.858-1.531l-.252-.477a27.167,27.167,0,0,0-2.162-3.62,4.425,4.425,0,0,0-1.853-1.551,10.469,10.469,0,0,0-3.05-.638C14.6,2.264,13.56,2.135,12.519,2c-.572-.072-1.144-.143-1.716-.211a.918.918,0,0,1-.7-.474,6.721,6.721,0,0,0-.583-.8A2.06,2.06,0,0,0,9.127.185c-.051-.036-.1-.072-.15-.11A.341.341,0,0,0,8.543.14L8.485.2a.3.3,0,0,0-.073.277A3.223,3.223,0,0,0,10.213,3c1.09.449,2.2.856,3.038,1.16a7.855,7.855,0,0,0,4.733.433.95.95,0,0,1,.461.19A7.606,7.606,0,0,1,20.523,7.25c1,1.734,1.962,3.464,2.857,5.075.449.811.892,1.624,1.334,2.439q.563,1.035,1.13,2.068c.5.9,1.008,1.791,1.519,2.682a2.11,2.11,0,0,0,.253.353,1.283,1.283,0,0,0-.246,0l-.087,0a.3.3,0,0,0-.3.255l-.021.123a.3.3,0,0,0,.209.341l1.854.558-.02.054-1.921-.362a.3.3,0,0,0-.348.224l-.028.119a.3.3,0,0,0,.141.33,4.72,4.72,0,0,0,1.309.461c.175.043.344.084.508.132l-1.851-.236a.3.3,0,0,0-.335.248l-.029.169a.3.3,0,0,0,.226.344l1.807.431c-.008.047-.015.094-.019.141-.006.063-.016.082-.031.063a.614.614,0,0,1-.064,0c-.43-.046-.866-.059-1.287-.07l-.2,0c-.123,0-.247.011-.37.022l-.17.014c-.153.011-.277.224-.283.378a.3.3,0,0,0,.2.295,5.677,5.677,0,0,0,1.515.26c.178.013.354.027.531.047,0,.035,0,.057.008.06a1.963,1.963,0,0,1-.338.052l-.188.017c-.1.009-.208.017-.31.032-.238.036-.475.074-.711.113l-.279.046a.3.3,0,0,0-.252.318l.008.113a.3.3,0,0,0,.3.277h1.548a.443.443,0,0,1-.311.195c-.274.054-.548.113-.822.171l-.333.071a.3.3,0,0,0-.235.344l.018.108a.3.3,0,0,0,.3.249h.507l-3.346,4.455-.268-.071a9.49,9.49,0,0,0-.964-.224,7.1,7.1,0,0,0-1.026-.067l-.191,0a3.578,3.578,0,0,1-3.007-1.535c-1.108-1.494-2.355-3.055-3.813-4.773-.513-.6-1.076-1.172-1.621-1.723-.392-.4-.784-.792-1.16-1.2A6.27,6.27,0,0,0,8.476,19.3c-.309-.068-.618-.138-.928-.209-.776-.177-1.579-.359-2.378-.507A4.99,4.99,0,0,1,1.056,15.463Z"/>
            </g>
          </g>
        </g>
      </g>
      <g id="g5744" transform="translate(-520.766 653.928) rotate(-91)">
        <circle id="path5254-0" class="cls-8" cx="78.455" cy="78.455" r="78.455" transform="translate(0 0)"/>
        <g id="g5045" class="cls-7" transform="translate(13.491 48.739)">
          <g id="g5000" transform="translate(0 0)">
            <g id="g5002">
              <g id="Layer_5_13_">
                <g id="g5005">
                  <path id="path5007" d="M120.28,26.868c.414-.89,3.247-4.644,5.811-8.536l.006-.008c.579-.878,1.143-1.762,1.664-2.623l.044-.073c.084-.14,6.082-9.756-2.461-5.862v0a64.618,64.618,0,0,0-6.213,3.771c-5.6,3.753-16.99,9.248-16.99,9.248s-1.982,1.071-3.289.255C92.244,18.922,82.619,11.6,69.93,7.526c-.211-.068-.48-.229-.115-.567l5.434-3.8s.426-.368-.121-.546c-2.689-.876-13.89-4.632-23.581-1.179L46.62,3.19a9.1,9.1,0,0,1-2.316.588C17.874,4.681,0,24.083,0,31.757c0,5.151,2.777,8.607,12.924,13.411a7.076,7.076,0,0,0,5.155.057c.912-.274,7.389-2.714,7.647-2.824a1.137,1.137,0,0,1,.533-.159c.138.022.239.328.238.39-.021,1.835-3.46,3.321-5.413,4.951a.7.7,0,0,0,.162,1.187A52.621,52.621,0,0,0,39.06,53.616c.883.093,12.377,7.458,23.967,5.482,6.13-1.045,9.047-1.4,10.378-1.77,1.162-.32.607-.689.607-.689L68.2,52.011c-.393-.436-.075-.771.254-.865,12.9-3.671,23.1-9.458,29.178-14.416.818-.668,2.944.92,4.462,1.687,5.041,2.546,25.965,11.172,27.689,9.346.148-.154.159-.383.008-.7-2.944-6.185-13.586-11.46-9.514-20.2Zm-98.879-.6a3.432,3.432,0,1,1,3.37-3.432A3.4,3.4,0,0,1,21.4,26.272ZM36.482,45.8c-.207.186-.4.468-.287.063A41.215,41.215,0,0,0,42.13,27.739c.51-7.658-4.592-17.036-4.592-17.036s.01-.274.189-.058C39.544,12.843,57.427,26.972,36.482,45.8Z" transform="translate(0 0)"/>
                </g>
              </g>
            </g>
          </g>
        </g>
      </g>
      <g id="g5724" transform="translate(-336.821 361.583) rotate(-90)">
        <circle id="path5254" class="cls-9" cx="78.455" cy="78.455" r="78.455" transform="translate(0)"/>
        <g id="g5169" class="cls-7" transform="translate(14.831 50.276)">
          <path id="path5131" d="M125.533,19.865,112.424,9.251a6.724,6.724,0,0,0-1.071-.648,6.354,6.354,0,1,0-11.706.384h-16.8a31.975,31.975,0,0,0-18.142-5.5c-14.634,0-26.733,9.355-28.928,21.569a15.337,15.337,0,0,0-12.7,15.216,10.59,10.59,0,0,1-5.118,8.4c-1.747.9-2.242.9-16.244,1.575a1.8,1.8,0,0,0,0,3.595c12.529.6,14.922.81,17.472.045,4.7-1.409,9.474-5.9,10.454-13.41a11.165,11.165,0,0,1,1.152-3.7,7.1,7.1,0,0,1,5.035-3.522c1.593,8.306,7.773,15.235,16.207,18.77,0,.007,0,.012,0,.019a4.315,4.315,0,0,0,4.316,4.316H89.258a4.316,4.316,0,1,0,0-8.632H85.03l21.391-17.311,16.84-2.365a4.634,4.634,0,0,0,2.272-8.185Z" transform="translate(0 0)"/>
        </g>
      </g>
      <g id="g5768" transform="matrix(-0.017, -1, 1, -0.017, -520.766, 292.492)">
        <circle id="path5254-8" class="cls-8" cx="78.455" cy="78.455" r="78.455"/>
        <g id="g5230" class="cls-7" transform="translate(50.942 13.049)">
          <g id="g5188" transform="translate(0 0)">
            <g id="g5190">
              <path id="path5192" d="M28.212,74.788c-.193,2.27,1.348,14.284,2.143,18.994.379,2.232,1.416,5.868,1.043,7.8a28.33,28.33,0,0,0-.394,8.2c.185,1.231.768,6.91-.066,8.987a65.528,65.528,0,0,0-1.236,6.671c-2.083,5.258-.907,5-.907,5,.645.791,1.749.062,1.749.062a1.082,1.082,0,0,0,1.424-.127,1.3,1.3,0,0,0,1.564-.074,1.6,1.6,0,0,0,1.749-.4c.521.262.649-.069.649-.069,1.563-.1-.872-5.1-.872-5.1-.583-4.494.579-7,.579-7,3.807-11.289,4-14.284,2.478-18.539-.429-1.228-.537-1.714-.34-2.248.456-1.231.124-6.18.68-8.146,1.073-3.791,2.131-13.4,2.683-17.89.741-6.042-2.625-14.144-2.625-14.144-.737-3.3.344-15.043.344-15.043,1.51,2.349,1.452,6.5,1.452,6.5-.24,4.349,3.513,11,3.513,11a17.7,17.7,0,0,1,2.486,5.546c0,.791-.173,2.707-.173,2.707l.069,1.668a23.794,23.794,0,0,1,.231,2.594c-.282,4.351.41,3.532.41,3.532.583,0,1.224-3.5,1.224-3.5,0,.9-.221,3.606.266,4.625.583,1.216,1.011-.209,1.019-.495.154-5.539.487-4.088.487-4.088.324,4.494.722,5.509,1.436,5.158.541-.258.046-5.393.046-5.393.926,3.05,1.629,3.536,1.629,3.536,1.529,1.073.583-1.891.371-2.478a16.851,16.851,0,0,1-1.166-4.2c1.413,2.8,2.478,2.7,2.478,2.7,1.378-.44-1.2-4.409-2.718-6.31a15.466,15.466,0,0,1-2.057-3.036,36.7,36.7,0,0,1-.827-5.5c-.143-4.95-1.366-7.1-1.366-7.1-2.092-3.349-2.486-9.6-2.486-9.6l-.093-10.547c-.734-7.194-6.035-7.246-6.035-7.246-5.358-.8-6.1-2.528-6.1-2.528-1.135-1.633-.486-4.764-.486-4.764a5.693,5.693,0,0,0,1.3-2.8c1.563-1.2,1.487-2.953.765-2.934-.579.015-.448-.465-.448-.465C35.061.4,28.05,0,28.05,0H26.98s-7.014.4-6.038,8.3c0,0,.131.481-.453.465-.72-.019-.787,1.735.77,2.934a5.689,5.689,0,0,0,1.3,2.8s.649,3.131-.486,4.764c0,0-.743,1.731-6.1,2.528,0,0-5.31.052-6.032,7.246l-.1,10.547s-.386,6.247-2.487,9.6c0,0-1.218,2.151-1.359,7.1a36.932,36.932,0,0,1-.826,5.5,15.3,15.3,0,0,1-2.06,3.036c-1.527,1.9-4.093,5.858-2.72,6.31,0,0,1.071.1,2.478-2.7a16.687,16.687,0,0,1-1.158,4.2c-.222.579-1.166,3.544.363,2.478,0,0,.708-.486,1.629-3.536,0,0-.494,5.135.056,5.393.718.352,1.11-.664,1.434-5.158,0,0,.332-1.451.486,4.088.008.286.427,1.711,1.012.495.494-1.019.272-3.718.272-4.625,0,0,.633,3.5,1.226,3.5,0,0,.7.819.411-3.532a21.9,21.9,0,0,1,.234-2.594L8.9,67.467s-.174-1.911-.174-2.707a17.678,17.678,0,0,1,2.486-5.546s3.749-6.65,3.507-11c0,0-.052-4.146,1.458-6.5,0,0,1.071,11.746.346,15.043,0,0-3.372,8.1-2.629,14.144.548,4.5,1.6,14.1,2.679,17.89.562,1.962.23,6.91.68,8.146.2.537.1,1.032-.34,2.248-1.513,4.254-1.321,7.251,2.486,18.539,0,0,1.172,2.5.579,7,0,0-2.432,5-.874,5.1,0,0,.122.332.649.069a1.6,1.6,0,0,0,1.751.4,1.293,1.293,0,0,0,1.562.074,1.073,1.073,0,0,0,1.418.127s1.1.745,1.761-.062c0,0,1.166.259-.91-5a65.216,65.216,0,0,0-1.233-6.671c-.836-2.076-.245-7.767-.067-8.987a28.826,28.826,0,0,0-.392-8.2c-.384-1.926.656-5.563,1.04-7.8.789-4.706,2.336-16.721,2.143-18.994l.639.224a1.3,1.3,0,0,0,.747-.223Z"/>
            </g>
          </g>
        </g>
      </g>
      <g id="g5702" transform="matrix(0.485, -0.875, 0.875, 0.485, -365.02, 525.252)">
        <circle id="path5254-1" class="cls-6" cx="78.455" cy="78.455" r="78.455"/>
        <g id="g4845" class="cls-7" transform="translate(34.584 35.934)">
          <g id="g4803" transform="translate(0 0)">
            <g id="g4805">
              <path id="path4807" d="M87.3.144a2.341,2.341,0,0,0-.562-.053H86.4a1.28,1.28,0,0,0-.232.031C86.018.11,85.865.095,85.712.08c-.246-.025-.493-.05-.739-.061a11.3,11.3,0,0,0-1.378,0,3.244,3.244,0,0,0-.655.144c-.1.029-.193.057-.291.08-.152.036-.3.069-.457.1-.215.047-.431.095-.644.148s-.423.113-.634.173l-.8.217c-.359.094-.719.188-1.073.3a2.972,2.972,0,0,0-.5.23c-.086.046-.172.092-.261.133-.153.069-.308.133-.464.2-.246.1-.492.2-.731.322-.273.134-.537.287-.8.439l-.458.261a2.607,2.607,0,0,1-.264.139,7.112,7.112,0,0,0-2.093,1.462,4.107,4.107,0,0,1-.8.542l-.18.1a4.56,4.56,0,0,0-1.4,1.335,6.834,6.834,0,0,1-.781.891c-.049.049-.1.095-.15.142a1.922,1.922,0,0,0-.63.878.728.728,0,0,1-.109.131,1.573,1.573,0,0,0-.159.187,1.015,1.015,0,0,0-.2.489,1.555,1.555,0,0,0,.009.295c0,.021,0,.04.007.059-.046.042-.083.073-.086.076a1.068,1.068,0,0,0-.107.055,1.922,1.922,0,0,0-.882,1.09.373.373,0,0,1-.05.053.7.7,0,0,0-.19.277.58.58,0,0,0-.027.114,6.1,6.1,0,0,1-.29.554c-.168.3-.325.605-.47.917a5.312,5.312,0,0,1-.365.7.526.526,0,0,0-.15.494l.009.022q-.007.028-.022.069a2.458,2.458,0,0,1-.1.224c-.042.086-.081.167-.1.226a.973.973,0,0,0-.056.336,14.43,14.43,0,0,1-.477,2.346c-.16.625-.327,1.272-.422,1.854-1.139,6.892-4.749,15.385-11.466,18.553a17.082,17.082,0,0,1-8.448,1.549c-.544-.039-1.069-.093-1.583-.146a26.472,26.472,0,0,0-2.746-.189,11.261,11.261,0,0,0-2.072.182q-2.475.46-4.948.933l-2.516.481a23.169,23.169,0,0,0-13.35,12.05,1.7,1.7,0,0,0-.237,1.459,1.108,1.108,0,0,0-.551.685,1.088,1.088,0,0,0,.04.784,1.367,1.367,0,0,0-.47.634,1.32,1.32,0,0,0,.044,1.057l-.137.437C15.4,61.915,13.756,67.147,13.627,72a.677.677,0,0,1-.076.04l-.077.038a.819.819,0,0,0-.321.4.623.623,0,0,1-.108.117c-.041.038-.082.078-.139.142a.523.523,0,0,0-.163.3c-.053.444-.1.889-.14,1.334,0,.034,0,.066-.006.1a1.367,1.367,0,0,1-.193.238,2.163,2.163,0,0,0-.3.356,5.9,5.9,0,0,0-.3.536,5.253,5.253,0,0,1-.273.494,2.565,2.565,0,0,1-.49.525c-.125.106-.247.217-.37.328a5.533,5.533,0,0,1-1.065.822,4.266,4.266,0,0,0-.851.638,4.421,4.421,0,0,1-.6.476c-.089.055-.18.108-.272.16s-.2.117-.3.179c-.142.089-.282.179-.423.27-.212.137-.424.274-.641.4-.335.2-.675.39-1.014.581l-.53.3c-.061.035-.122.072-.181.11a2.235,2.235,0,0,1-.244.141c-.165.078-.333.152-.5.226-.241.106-.481.212-.715.33l-.365.184c-.638.321-1.3.653-1.927,1.026a2.268,2.268,0,0,0-1,1.234.73.73,0,0,0,.024.592.574.574,0,0,0,.372.281,2.341,2.341,0,0,0,.562.054h.333a1.276,1.276,0,0,0,.232-.031c.153.011.306.027.459.042.246.025.493.05.739.061s.5.02.752.02c.209,0,.418-.007.626-.024a3.244,3.244,0,0,0,.655-.144c.1-.029.193-.057.291-.08.152-.036.3-.069.457-.1.215-.047.431-.095.644-.148s.424-.113.635-.173l.8-.216c.359-.094.719-.188,1.073-.3a3.011,3.011,0,0,0,.5-.229c.086-.046.173-.093.262-.133.153-.069.309-.134.464-.2.246-.1.492-.2.73-.322.273-.134.537-.287.8-.439l.458-.261a2.563,2.563,0,0,1,.265-.139,7.112,7.112,0,0,0,2.093-1.462,4.119,4.119,0,0,1,.8-.542l.18-.1a4.563,4.563,0,0,0,1.4-1.334,6.8,6.8,0,0,1,.781-.891c.049-.049.1-.095.15-.142a1.923,1.923,0,0,0,.63-.878.718.718,0,0,1,.109-.133,1.568,1.568,0,0,0,.158-.186,1.379,1.379,0,0,0,.11-.185,5.964,5.964,0,0,1,.4-.584c2.648-3.461,3.675-7.732,4.669-11.863,1.291-5.368,2.511-10.439,6.962-14a17.271,17.271,0,0,1,6.868-3.3,19.87,19.87,0,0,1,4.367-.608,5.445,5.445,0,0,1,2.245.386.993.993,0,0,0,.1.04.6.6,0,0,1,.081.047,1.124,1.124,0,0,0,.169.094,1.089,1.089,0,0,0,.193.058l.1.012a.4.4,0,0,0,.373-.237.574.574,0,0,1,.087-.006,5.925,5.925,0,0,1,.72.1l.315.054c.107.017.213.035.318.056l.106.011a.892.892,0,0,0,.425-.135,4.559,4.559,0,0,1,1.957-.26,7.2,7.2,0,0,0,1.762-.147,18.7,18.7,0,0,0,7.7-2.36,20.059,20.059,0,0,0,8.3-6.131.636.636,0,0,0,.213-.453c-.008-.129.015-.2.177-.266a.8.8,0,0,0,.577-.827.312.312,0,0,1,.1-.129.814.814,0,0,0,.5-.847c-.01-.139.033-.164.1-.189a.632.632,0,0,0,.413-.857c-.02-.07-.025-.1-.034-.108a.412.412,0,0,1,.068-.033c.616-.237.637-.532.455-1.066-.01-.028-.019-.056-.028-.086a.718.718,0,0,0,.511-.283.7.7,0,0,0,.109-.62,2.135,2.135,0,0,0-.123-.306.716.716,0,0,0,.391-.248,1.13,1.13,0,0,0,.238-.4,1.089,1.089,0,0,0,.013-.462.621.621,0,0,0-.176-.331.684.684,0,0,0,.357-.283,2.143,2.143,0,0,0,.221-.374.721.721,0,0,0-.1-.674.761.761,0,0,1-.133-.235.708.708,0,0,0,.622-.568.886.886,0,0,0-.148-.767.276.276,0,0,1-.022-.115.442.442,0,0,0,.45-.252,1.121,1.121,0,0,1,.061-.119.718.718,0,0,0-.013-.828c-.057-.088-.077-.138-.086-.148a.647.647,0,0,1,.08-.043.418.418,0,0,0,.242-.243.546.546,0,0,0,.205-.291.748.748,0,0,0-.156-.588l-.051-.082c-.029-.046-.072-.111-.086-.094a.234.234,0,0,1,.051-.041.382.382,0,0,0,.159-.307.43.43,0,0,0,.2-.226.472.472,0,0,0-.027-.39,1.255,1.255,0,0,0-.125-.2.141.141,0,0,1-.04-.113c.011-.04.117-.118.168-.156a.782.782,0,0,0,.195-.179c.046-.066.089-.132.129-.2a.622.622,0,0,0,.072-.387c-.026-.164-.056-.326-.087-.494-.005-.028-.009-.053-.012-.075a1.053,1.053,0,0,0,.411-.445.7.7,0,0,0-.042-.74,1.049,1.049,0,0,1-.114-.293.818.818,0,0,0,.46-.509.766.766,0,0,0-.112-.786c-.1-.134-.066-.24.187-.579a.82.82,0,0,0,.079-.91c-.047-.1-.055-.19.056-.365a1.659,1.659,0,0,0,.286-1.62.928.928,0,0,1,.048-.1c.047-.086.1-.168.15-.252a1.592,1.592,0,0,0,.3-1.462,1.362,1.362,0,0,1-.04-.41.5.5,0,0,1,.076-.04l.078-.039a.82.82,0,0,0,.321-.4.628.628,0,0,1,.108-.117c.041-.038.082-.078.139-.142a.522.522,0,0,0,.163-.3c.053-.444.1-.889.141-1.335,0-.033,0-.066.005-.1a1.369,1.369,0,0,1,.193-.238,2.176,2.176,0,0,0,.3-.356,5.915,5.915,0,0,0,.3-.536,5.27,5.27,0,0,1,.273-.494,2.563,2.563,0,0,1,.491-.525c.123-.106.244-.215.366-.325a5.486,5.486,0,0,1,1.068-.824,4.266,4.266,0,0,0,.851-.64,4.406,4.406,0,0,1,.6-.475c.089-.055.181-.108.272-.16s.2-.117.3-.179c.142-.089.282-.179.423-.27.212-.137.424-.274.641-.4.335-.2.675-.39,1.014-.581l.53-.3c.061-.035.121-.072.181-.11a2.246,2.246,0,0,1,.244-.141c.165-.078.333-.152.5-.226.241-.106.481-.212.715-.329l.365-.184c.638-.321,1.3-.653,1.927-1.026a2.269,2.269,0,0,0,1-1.234.731.731,0,0,0-.024-.592A.567.567,0,0,0,87.3.144Z"/>
            </g>
          </g>
        </g>
      </g>
    </g>
  </g>
</svg>
